<svg xmlns="http://www.w3.org/2000/svg" width="476" height="620" fill="none" viewBox="0 0 476 620">
    <path fill="#f3f5f8" d="M0 0h476v620H0z"/>
    <path fill="#fff" d="M324.214 434.26c-3.093-5.131-4.586-13.256-4.586-24.482V164c-17.066 3.421-38.184 5.131-63.463 5.131-7.572 0-15.039-.32-22.611-1.069v7.698c7.572 0 12.799 2.565 15.892 7.697s4.586 13.256 4.586 24.482v56.339c-9.706-6.093-22.398-9.194-37.971-9.194-25.065 0-44.797 8.339-59.302 25.017C142.253 296.778 135 321.367 135 353.759c0 34.104 6.826 59.547 20.479 76.225C169.131 446.661 187.157 455 209.449 455c10.665 0 19.518-2.138 26.451-6.628 6.933-4.383 12.906-11.332 18.026-20.847v25.978c17.065-3.421 38.184-5.131 63.462-5.131 7.573 0 15.039.32 22.612 1.069v-7.697c-7.573 0-12.799-2.566-15.892-7.698l.106.214Zm-70.288-24.482c0 7.591-2.667 13.898-7.893 18.816-5.227 5.025-11.413 7.483-18.452 7.483-7.573 0-13.546-5.986-17.919-18.067-4.373-12.08-6.613-33.141-6.613-63.075 0-29.934 2.773-51.529 8.213-66.068 5.439-14.539 13.972-21.809 25.385-21.809 6.079 0 11.839 1.604 17.172 4.704v137.91l.107.106Z"/>
</svg>
